<svg width="10032" height="1963" viewBox="0 0 10032 1963" fill="none" xmlns="http://www.w3.org/2000/svg">
<path d="M121.781 11.3283H1648.28L1767.23 506.945L1750.24 512.609C1719.08 368.172 1673.77 252.056 1611.46 164.261C1549.16 79.2987 1433.04 33.9851 1265.95 31.153H1002.56C988.402 31.153 974.241 31.153 965.745 33.9851C954.417 36.8171 948.753 50.9777 948.753 70.8023V1891.84C948.753 1908.83 954.417 1920.16 965.745 1928.66C977.074 1937.15 991.234 1939.98 1005.39 1939.98H1096.02V1951.31H674.04V1939.98H764.667C778.827 1939.98 792.987 1937.15 804.316 1928.66C815.644 1920.16 821.308 1908.83 821.308 1891.84V70.8023C821.308 50.9777 815.644 39.6493 807.148 36.8171C798.652 33.9851 787.323 31.153 773.163 31.153H504.114C337.02 33.9851 220.905 79.2987 158.598 164.261C93.4603 252.056 48.1468 368.172 19.8259 512.609L0.00124913 506.945L121.781 11.3283ZM1880.69 22.6567V11.3283H2305.5V22.6567H2212.04C2197.88 22.6567 2183.72 25.4889 2172.39 33.9851C2161.07 42.4814 2155.4 53.8098 2155.4 70.8023V1818.2C2288.51 1758.73 2413.12 1736.07 2534.9 1750.23C2619.86 1764.39 2702 1792.72 2778.46 1838.03C2843.6 1874.85 2905.91 1900.33 2971.04 1917.33C3019.19 1931.49 3073 1928.66 3126.81 1914.5C3157.96 1903.17 3169.29 1874.85 3160.79 1832.36C3140.97 1755.9 3104.15 1685.1 3056.01 1619.96C3002.2 1549.16 2973.88 1481.18 2965.38 1416.05C2971.04 1348.08 3002.2 1285.77 3056.01 1229.13C3109.82 1175.32 3163.63 1130.01 3217.44 1096.02L3228.76 1113.01C3183.45 1141.33 3143.8 1175.32 3112.65 1217.8C3081.5 1260.28 3067.34 1308.43 3073 1367.9C3087.16 1427.38 3112.65 1484.02 3152.3 1543.49C3197.61 1608.63 3225.93 1679.43 3240.09 1753.07C3245.76 1849.36 3214.6 1908.83 3149.47 1928.66C3084.33 1948.48 3010.69 1956.98 2928.56 1951.31H2914.4C2806.78 1945.65 2702 1925.82 2600.04 1891.84C2529.24 1866.35 2455.6 1849.36 2381.97 1835.2C2308.33 1823.87 2231.87 1829.53 2155.4 1849.36C2112.92 1863.52 2076.1 1880.51 2050.61 1900.33C2030.79 1914.5 2008.13 1928.66 1982.64 1937.15C1957.15 1945.65 1923.17 1951.31 1880.69 1951.31V1939.98H1883.52C1948.66 1937.15 1999.64 1917.33 2030.79 1886.17V70.8023C2030.79 53.8098 2025.13 42.4814 2013.8 33.9851C1999.64 25.4889 1985.48 22.6567 1971.32 22.6567H1880.69ZM3453.74 1939.98C3467.9 1939.98 3482.06 1937.15 3493.39 1928.66C3504.72 1920.16 3510.38 1908.83 3510.38 1891.84V70.8023C3510.38 53.8098 3504.72 42.4814 3493.39 33.9851C3482.06 25.4889 3467.9 22.6567 3453.74 22.6567H3363.11V11.3283H4677.2L4798.98 506.945L4779.16 512.609C4750.84 368.172 4705.52 252.056 4643.22 164.261C4578.08 79.2987 4461.96 33.9851 4294.87 31.153H3663.31C3654.82 31.153 3646.32 36.8171 3643.49 45.3135C3637.83 53.8098 3634.99 62.306 3634.99 70.8023V1214.97C3660.48 1110.18 3702.96 1030.88 3762.44 979.904C3821.91 931.759 3892.71 903.438 3977.68 894.942C4028.65 892.109 4079.63 892.109 4127.78 897.774C4204.24 906.27 4269.38 900.606 4323.19 880.781C4377 860.956 4410.99 792.986 4419.48 682.535H4439.31C4433.64 821.307 4405.32 911.934 4351.51 954.416C4297.7 999.729 4232.57 1022.39 4153.27 1022.39C4110.79 1025.22 4071.14 1025.22 4034.32 1022.39C3929.53 1016.72 3844.57 1028.05 3773.77 1059.2C3702.96 1090.36 3654.82 1180.98 3634.99 1328.25V1891.84C3634.99 1900.33 3637.83 1908.83 3643.49 1917.33C3649.15 1925.82 3657.65 1931.49 3666.15 1931.49H4317.53C4580.91 1928.66 4750.84 1795.55 4830.14 1532.16L4892.44 1277.27L4912.27 1282.94L4750.84 1951.31H3363.11V1939.98H3453.74ZM6487.88 22.6567C6470.89 22.6567 6459.56 22.6567 6451.07 25.4889C6442.57 28.321 6434.08 31.153 6428.41 36.8171C6422.75 42.4814 6417.08 50.9777 6408.59 62.306C6405.75 67.9703 6402.92 73.6344 6400.09 76.4664L5813.85 1059.2V1891.84C5813.85 1908.83 5819.51 1920.16 5830.84 1928.66C5842.17 1937.15 5856.33 1939.98 5870.49 1939.98H5961.12V1951.31H5539.13V1939.98H5629.76C5643.92 1939.98 5658.08 1937.15 5672.24 1928.66C5683.57 1920.16 5689.23 1908.83 5689.23 1891.84V1064.87L5026.52 93.4591C5012.36 73.6344 4998.2 56.6419 4984.04 42.4814C4969.88 28.321 4950.06 22.6567 4924.57 22.6567H4856.6V11.3283H5278.58V22.6567H5190.79C5170.96 22.6567 5162.47 28.321 5159.63 39.6493C5156.8 50.9777 5156.8 62.306 5165.3 73.6344L5811.01 1028.05L6380.27 73.6344C6394.43 39.6493 6385.93 22.6567 6349.11 22.6567H6264.15V11.3283H6558.69V22.6567H6487.88ZM8162.29 982.736C8162.29 843.964 8142.47 716.52 8105.65 594.74C8066 472.96 8006.53 368.172 7930.06 280.377C7836.6 235.064 7728.98 218.071 7607.2 229.4C7488.26 252.056 7414.62 303.034 7383.47 382.333C7352.32 461.631 7343.82 552.258 7363.64 657.046C7380.64 761.833 7403.29 860.956 7434.45 960.08C7459.93 1036.55 7476.93 1104.52 7485.42 1163.99C7505.25 1282.94 7493.92 1390.56 7451.44 1489.68C7406.12 1588.8 7323.99 1656.77 7205.05 1693.59C7083.27 1733.24 6919 1724.75 6709.43 1668.1C6780.23 1753.07 6865.19 1821.04 6969.98 1869.18C7071.94 1917.33 7190.89 1942.82 7326.83 1942.82C7510.91 1942.82 7666.68 1897.5 7791.29 1809.71C7915.9 1721.91 8009.36 1602.96 8071.67 1458.53C8131.14 1314.09 8162.29 1155.49 8162.29 982.736ZM7901.74 249.224C7830.94 178.422 7748.81 121.78 7652.52 79.2987C7556.23 39.6493 7445.77 19.8246 7323.99 19.8246C7139.91 19.8246 6984.14 65.1382 6862.36 152.933C6737.75 240.728 6644.29 359.676 6581.99 504.113C6519.68 651.382 6488.53 809.979 6488.53 982.736C6488.53 1234.79 6556.5 1452.86 6689.61 1642.61C6873.69 1690.76 7018.13 1699.26 7120.08 1665.27C7219.21 1631.29 7287.18 1571.81 7323.99 1484.02C7357.98 1399.05 7369.31 1302.76 7360.81 1195.14C7352.32 1121.51 7338.15 1042.21 7318.33 960.08C7298.51 877.949 7284.34 795.818 7275.85 713.688C7264.52 631.557 7267.35 555.09 7287.18 478.624C7312.67 385.165 7374.97 308.698 7476.93 249.224C7578.88 189.75 7720.49 189.75 7901.74 249.224ZM6363.91 982.736C6363.91 693.863 6451.71 458.799 6627.3 274.713C6800.06 90.6271 7035.12 4.4753e-05 7326.83 4.4753e-05C7618.53 4.4753e-05 7850.76 90.6271 8026.35 274.713C8201.94 458.799 8289.74 693.863 8289.74 982.736C8289.74 1271.61 8201.94 1506.67 8026.35 1687.93C7850.76 1872.01 7618.53 1962.64 7326.83 1962.64C7035.12 1962.64 6800.06 1872.01 6627.3 1687.93C6451.71 1506.67 6363.91 1271.61 6363.91 982.736ZM9204.79 1920.16C9357.73 1922.99 9490.83 1857.85 9604.12 1724.75C9672.09 1622.79 9723.07 1506.67 9757.05 1379.23V11.3283H10031.8V22.6567H9941.14C9926.98 22.6567 9912.82 25.4889 9901.49 33.9851C9890.16 42.4814 9884.49 53.8098 9884.49 70.8023V1891.84C9884.49 1908.83 9890.16 1920.16 9901.49 1928.66C9912.82 1937.15 9926.98 1939.98 9941.14 1939.98H10031.8V1951.31H9757.05V1438.7C9720.23 1597.3 9646.6 1733.24 9541.81 1843.69C9448.35 1922.99 9335.07 1962.64 9201.96 1962.64C8966.9 1962.64 8785.64 1889.01 8652.53 1744.57C8519.43 1600.13 8482.61 1413.21 8542.08 1178.15C8567.57 1098.85 8601.56 1022.39 8646.87 951.583C8692.18 880.781 8740.33 815.643 8791.31 750.505C8845.12 679.702 8893.26 611.732 8932.91 546.594C8969.73 481.456 8989.55 419.15 8992.39 354.012C8989.55 277.545 8958.4 218.071 8898.93 172.758C8839.45 127.444 8768.65 93.4591 8686.52 70.8023C8604.39 48.1455 8533.59 33.9851 8471.28 25.4889C8462.78 22.6567 8457.12 22.6567 8448.62 22.6567H8358V11.3283H8697.85C8774.31 36.8171 8845.12 79.2987 8910.25 138.773C8975.39 198.247 9009.38 269.049 9012.21 354.012C9009.38 427.646 8989.55 498.448 8958.4 563.587C8924.42 631.557 8884.77 699.527 8839.45 764.665C8771.48 860.956 8714.84 965.744 8672.36 1079.03C8627.05 1195.14 8624.21 1331.08 8661.03 1489.68C8692.18 1611.46 8754.49 1710.58 8847.95 1789.88C8938.58 1872.01 9057.52 1914.5 9204.79 1920.16Z" fill="black"/>
</svg>
